PathFileType	4	(X/Y/Z)	C:/Users/opensim2020/Desktop/walking_exp_matlab/subject02_walking15_straight_03.trc	
DataRate	CameraRate	NumFrames	NumMarkers	Units	OrigDataRate	OrigDataStartFrame	OrigNumFrames	
100.00	100.00	5	42	mm	100.00	1355	103	
Frame#	Time	LFHD			RFHD			LBHD			RBHD			C7			T10			CLAV			STRN			RBAK			LSHO			LUPA			LELB			LFRM			LWRA			LWRB			LFIN			RSHO			RUPA			RELB			RFRM			RWRA			RWRB			RFIN			LASI			RASI			LPSI			RPSI			LTHI			LKNE			LTIB			LANK			LHEE			LTOE			RTHI			RKNE			RTIB			RANK			RHEE			RTOE			*39			*40			*41			
		X1	Y1	Z1	X2	Y2	Z2	X3	Y3	Z3	X4	Y4	Z4	X5	Y5	Z5	X6	Y6	Z6	X7	Y7	Z7	X8	Y8	Z8	X9	Y9	Z9	X10	Y10	Z10	X11	Y11	Z11	X12	Y12	Z12	X13	Y13	Z13	X14	Y14	Z14	X15	Y15	Z15	X16	Y16	Z16	X17	Y17	Z17	X18	Y18	Z18	X19	Y19	Z19	X20	Y20	Z20	X21	Y21	Z21	X22	Y22	Z22	X23	Y23	Z23	X24	Y24	Z24	X25	Y25	Z25	X26	Y26	Z26	X27	Y27	Z27	X28	Y28	Z28	X29	Y29	Z29	X30	Y30	Z30	X31	Y31	Z31	X32	Y32	Z32	X33	Y33	Z33	X34	Y34	Z34	X35	Y35	Z35	X36	Y36	Z36	X37	Y37	Z37	X38	Y38	Z38	X39	Y39	Z39	X40	Y40	Z40	X41	Y41	Z41	X42	Y42	Z42	

78	0.770	1375.46838	312.97794	1687.06055	1519.14075	326.33398	1680.75415	1386.79810	178.14517	1620.77271	1530.07544	178.72238	1613.69604	1466.39441	127.66019	1478.45825	1496.52710	89.82123	1201.48218	1452.84607	267.53537	1415.92798	1465.42065	330.20200	1248.47961	1539.53210	79.99319	1301.95508	1285.33545	188.96989	1446.29980	1201.71350	212.45540	1251.71582	1182.59167	255.83443	1113.32813	1202.41418	361.91501	1031.56104	1268.58923	479.83878	1007.67273	1234.36328	461.81000	966.94287	1249.06311	525.51898	951.69763	1650.38501	206.09824	1455.62463	1746.50598	137.10460	1288.84741	1787.75842	116.35912	1153.18030	1834.83496	103.44452	1043.12756	1848.37231	107.47100	906.09711	1872.59998	59.82627	925.99042	1890.14905	68.77552	854.53253	1353.77625	288.29504	925.71765	1593.62866	351.45251	952.94055	1474.00098	106.99469	984.45978	1589.07898	128.96877	1001.92969	1336.52185	134.33780	634.83881	1371.67297	60.74791	457.94275	1403.07153	-97.57130	354.90051	1447.68848	-234.76170	181.31505	1507.73682	-259.79532	189.64304	1435.65637	-176.44167	35.55044	1694.20007	374.49042	667.75421	1642.69421	444.74518	474.91888	1663.57019	440.08444	288.10135	1638.03601	431.64420	92.97122	1594.44006	385.95807	39.23510	1618.17407	583.68353	41.01616	1468.46973	225.07573	1766.36938	-3357.03564	2846.10889	1034.51147			 
79	0.780	1374.58569	326.97348	1688.89917	1517.87256	341.09268	1682.82739	1386.44263	192.17145	1622.66711	1529.41382	193.34982	1615.59290	1466.46191	141.64691	1480.64185	1496.95581	104.89864	1203.29480	1452.14185	282.22168	1418.01941	1464.83716	345.49426	1250.98157	1540.02319	95.49166	1303.67749	1285.19385	202.45914	1448.00928	1202.00452	223.60649	1252.76245	1183.65369	266.67786	1114.21143	1202.51196	372.26587	1031.32581	1266.41760	490.96927	1006.92206	1232.57202	472.17587	966.16803	1245.90369	536.01825	950.50635	1649.95886	221.75882	1458.05774	1747.73840	156.37247	1290.22144	1788.22339	137.83713	1154.13647	1835.19092	126.07172	1043.96997	1849.09741	130.60341	907.18622	1874.51831	83.69089	927.23657	1891.67957	92.93481	855.84412	1356.07751	304.51334	926.74805	1594.68652	368.11423	954.78052	1473.84033	122.93808	986.65118	1589.48694	145.46849	1005.14850	1336.23193	156.75587	631.84961	1367.83911	89.55941	454.32874	1397.73889	-69.44899	355.32538	1445.87451	-213.09764	190.00021	1506.45349	-237.79813	200.09708	1433.03589	-163.17036	42.08244	1691.63989	391.64944	669.45813	1640.91321	455.99149	474.24545	1662.55408	443.58627	287.48566	1637.36401	431.94772	93.15199	1594.20618	386.10254	39.39745	1616.41614	584.32532	40.58973	1467.59912	239.42892	1768.25488	-3356.84424	2846.04126	1034.28430			 
80	0.790	1373.33154	340.92410	1691.40442	1516.56165	355.77600	1685.30420	1385.71130	206.12688	1624.80884	1528.81824	208.13205	1617.84961	1466.11572	156.76736	1482.32349	1497.62927	120.03033	1205.56335	1451.11719	296.80728	1420.39233	1463.90442	360.47134	1253.67480	1540.75208	111.10051	1306.05664	1285.02612	215.84158	1449.94788	1202.45667	234.93402	1253.97095	1184.39319	276.94016	1115.13794	1201.67700	381.79477	1031.10730	1263.96692	501.35883	1005.58203	1231.02258	480.88687	964.39825	1242.44031	545.16528	948.62585	1649.19275	237.29823	1460.88916	1748.32349	175.54410	1291.90149	1788.79614	159.85599	1155.57764	1835.71399	149.64969	1045.52454	1849.49683	154.80881	908.57538	1875.57153	108.01279	928.35284	1892.94373	117.91463	856.92328	1358.33752	320.40820	928.27728	1595.73413	384.07410	956.97992	1473.92175	138.27264	988.88361	1589.54370	161.37230	1007.81622	1335.73511	180.05544	628.24567	1363.69666	119.25744	450.94571	1391.63196	-40.65558	355.47308	1445.75354	-190.64738	198.86420	1506.06104	-214.58144	209.18649	1429.13196	-144.34306	48.99495	1689.22058	408.39676	671.63513	1640.06396	464.39810	473.29041	1661.30835	445.73514	286.61752	1637.01575	432.42462	92.99619	1594.10193	385.99716	39.46374	1616.84534	584.40320	40.61598	1466.81824	253.61969	1770.51721	-3360.55518	2845.44678	1034.27112			 
81	0.800	1371.94153	354.78323	1694.29175	1515.07666	370.36078	1688.15381	1385.16895	220.30150	1627.55615	1528.03479	222.90714	1620.47803	1465.92224	170.07176	1484.70081	1498.67029	135.16298	1208.28308	1449.94006	311.23489	1423.11890	1462.49231	375.03619	1256.46448	1540.79956	126.19388	1308.46582	1284.51892	228.94928	1452.12622	1203.11633	246.64795	1255.37085	1184.92102	286.53564	1116.16699	1201.13147	390.80560	1031.00525	1261.04883	510.86496	1003.48938	1229.08667	488.97989	962.51526	1238.61584	553.19623	945.60693	1648.25427	252.88019	1464.08240	1748.91528	195.28645	1294.24487	1788.92969	181.98476	1157.27637	1835.79370	173.57292	1047.20642	1849.27136	179.82974	910.17859	1876.42786	133.53783	929.78857	1893.58179	144.16399	858.48846	1359.60852	335.63275	929.80432	1596.52759	399.43134	959.56500	1474.27527	153.07347	991.29675	1589.52271	176.69252	1010.20300	1334.66370	204.21416	625.67914	1359.51855	149.57126	448.26547	1386.58997	-11.29583	355.91412	1445.69482	-165.48047	206.89160	1506.47302	-189.13496	216.98416	1425.90027	-121.12207	55.97354	1687.60510	424.06076	673.72223	1640.09998	470.37967	472.15869	1660.31445	447.45706	285.69205	1636.54077	432.53186	92.72344	1593.63538	385.75024	39.37691	1616.02966	584.36993	40.54855	1466.08594	267.84567	1773.26599	-3357.01953	2846.01074	1034.32104			 
82	0.810	1370.22632	368.53760	1697.49695	1513.49634	384.91577	1691.18945	1384.20618	234.29576	1630.64929	1527.09485	237.58130	1623.38782	1465.54224	184.41289	1487.38428	1499.75110	150.15977	1211.40918	1448.48083	325.44946	1426.21753	1460.83252	389.37064	1259.45398	1541.43152	141.36188	1311.72974	1283.72217	241.73680	1454.61084	1203.19495	257.07990	1257.00928	1185.66821	295.93704	1117.46313	1200.35315	398.85046	1030.53735	1258.22925	519.52924	1000.94519	1227.16614	495.95239	960.35284	1234.87122	559.39026	942.17590	1647.22876	268.57599	1467.62537	1748.70325	214.97771	1296.66602	1788.81677	204.30754	1159.39771	1835.38623	197.80904	1049.05310	1848.61902	205.82240	912.24323	1876.76465	159.91579	931.37335	1893.82458	171.53868	860.25806	1360.38501	350.04782	931.68109	1596.94324	414.21545	962.30890	1474.62842	167.41721	993.96960	1589.50061	191.34383	1012.59760	1333.00415	228.40485	624.97021	1356.05078	179.88811	446.61728	1383.97131	18.28175	358.02576	1445.33594	-138.16644	213.63892	1506.64880	-162.12573	222.84398	1423.33838	-95.06646	63.88224	1685.74561	438.46933	676.15698	1640.55212	475.42365	471.43015	1660.02185	449.69412	285.15118	1636.17871	432.52963	92.45882	1593.60962	385.61496	39.35838	1615.87000	584.24945	40.69707	1465.03662	282.07544	1776.22290	-3356.95630	2846.00537	1034.32629			 
